<svg width="46" height="50" viewBox="0 0 46 50" fill="none" xmlns="http://www.w3.org/2000/svg">
<path fill-rule="evenodd" clip-rule="evenodd" d="M45.8658 3.33707L44.5083 6.97486L42.824 10.8796C41.2617 14.2274 39.1149 18.1413 36.547 20.8426C34.0965 23.4197 30.3966 25.7966 27.4353 27.4832C27.8253 29.3533 27.7434 31.2911 27.1971 33.1217C26.6507 34.9523 25.6572 36.618 24.306 37.9686C19.0829 43.1917 13.2454 43.1917 8.90349 41.9032C6.52969 41.2044 4.29854 40.0904 2.31359 38.6128L0.323273 36.9608C0.216964 36.8714 0.132603 36.7588 0.0766991 36.6317C0.0207956 36.5046 -0.00515574 36.3663 0.00084754 36.2276C0.00685082 36.0888 0.0446482 35.9533 0.111323 35.8315C0.177998 35.7097 0.271768 35.6048 0.385399 35.525L1.14931 34.9796C2.8244 33.7601 4.55241 32.2599 4.96428 30.1937C5.22812 28.0645 5.37921 26.9041 5.41756 26.7123C5.73509 25.127 6.40697 23.3277 8.03373 21.6963C9.38426 20.3451 11.05 19.3516 12.8806 18.8052C14.7112 18.2589 16.649 18.177 18.5191 18.567C20.2057 15.6057 22.5803 11.9058 25.1597 9.45528C27.861 6.88742 31.7749 4.73834 35.1227 3.1783L39.0251 1.49171L42.6652 0.136457C43.111 -0.0166229 43.5908 -0.0414666 44.05 0.0647542C44.5093 0.170975 44.9294 0.403993 45.2627 0.73728C45.596 1.07057 45.829 1.49074 45.9352 1.94995C46.0415 2.40917 46.0166 2.88898 45.8635 3.33477L45.8658 3.33707ZM11.2896 24.9521C10.4773 25.7621 10.1253 26.641 9.92971 27.6143C9.6674 29.745 9.51631 30.9062 9.47642 31.0979C9.06226 33.178 7.84506 34.8945 6.83034 36.0404C7.90204 36.6461 9.03709 37.1323 10.215 37.49C13.3995 38.438 17.3249 38.438 21.0525 34.7127C21.702 34.0736 22.2185 33.3122 22.5722 32.4724C22.926 31.6327 23.1099 30.7312 23.1135 29.82C23.1171 28.9088 22.9403 28.0058 22.5932 27.1633C22.2461 26.3208 21.7356 25.5553 21.0912 24.9111C20.4468 24.2668 19.6812 23.7565 18.8386 23.4096C17.996 23.0627 17.0931 22.8861 16.1818 22.8899C15.2706 22.8937 14.3692 23.0779 13.5295 23.4319C12.6898 23.7858 11.9286 24.3025 11.2896 24.9521ZM22.7713 20.4078C23.8699 21.1778 24.8254 22.1341 25.5945 23.2333C26.4942 22.711 27.4238 22.145 28.3327 21.549L28.2636 21.3949C27.8854 20.5989 27.3716 19.8748 26.745 19.255C26.1914 18.701 25.5577 18.2333 24.8651 17.8675L24.451 17.6696C23.8573 18.5785 23.2913 19.5058 22.7713 20.4078ZM39.8949 6.1074C39.0113 6.47325 38.0541 6.88972 37.0647 7.34991C33.825 8.86163 30.4702 10.7553 28.3304 12.7893C27.9683 13.1345 27.6079 13.5126 27.2489 13.9237C28.0819 14.3839 29.0482 15.0512 29.9985 16.0038C30.9511 16.954 31.6161 17.9204 32.0786 18.7534C32.4897 18.3944 32.8678 18.034 33.213 17.6719C35.247 15.5321 37.1407 12.1773 38.6524 8.93526C39.1126 7.94586 39.5267 6.98867 39.8949 6.1074Z" fill="black"/>
</svg>
