<svg width="49" height="42" viewBox="0 0 49 42" fill="none" xmlns="http://www.w3.org/2000/svg">
<path d="M29.1667 11.6666H25.6667V23.3333L35.6533 29.2599L37.3333 26.4366L29.1667 21.5833V11.6666ZM28 0C22.4305 0 17.089 2.21249 13.1508 6.15074C9.21249 10.089 7 15.4304 7 20.9999H0L9.24 30.4032L18.6667 20.9999H11.6667C11.6667 16.6681 13.3875 12.5136 16.4506 9.45056C19.5137 6.38747 23.6681 4.66665 28 4.66665C32.3319 4.66665 36.4863 6.38747 39.5494 9.45056C42.6125 12.5136 44.3333 16.6681 44.3333 20.9999C44.3333 25.3318 42.6125 29.4862 39.5494 32.5493C36.4863 35.6124 32.3319 37.3332 28 37.3332C23.4967 37.3332 19.4133 35.4899 16.4733 32.5266L13.16 35.8399C15.1004 37.8009 17.4121 39.3556 19.9601 40.4133C22.5081 41.4709 25.2412 42.0103 28 41.9999C33.5695 41.9999 38.911 39.7874 42.8492 35.8491C46.7875 31.9109 49 26.5695 49 20.9999C49 15.4304 46.7875 10.089 42.8492 6.15074C38.911 2.21249 33.5695 0 28 0Z" fill="black"/>
</svg>
