<svg width="46" height="46" viewBox="0 0 46 46" fill="none" xmlns="http://www.w3.org/2000/svg">
<path d="M9.625 8.4375L19.125 14.375L9.625 20.3125V8.4375Z" fill="black"/>
<path fill-rule="evenodd" clip-rule="evenodd" d="M5.11111 0C3.75556 0 2.45553 0.53849 1.49701 1.49701C0.53849 2.45553 0 3.75556 0 5.11111V40.8889C0 42.2444 0.53849 43.5445 1.49701 44.503C2.45553 45.4615 3.75556 46 5.11111 46H40.8889C42.2444 46 43.5445 45.4615 44.503 44.503C45.4615 43.5445 46 42.2444 46 40.8889V5.11111C46 3.75556 45.4615 2.45553 44.503 1.49701C43.5445 0.53849 42.2444 0 40.8889 0H5.11111ZM40.8889 3.83333H5.11111C4.77222 3.83333 4.44722 3.96796 4.20759 4.20759C3.96796 4.44722 3.83333 4.77222 3.83333 5.11111V32.4734L13.11 25.7114C13.4233 25.4825 13.7987 25.3541 14.1866 25.3432C14.5744 25.3322 14.9565 25.4393 15.2822 25.6501L22.7598 30.498L31.8857 21.6251C32.2435 21.277 32.723 21.0822 33.2222 21.0822C33.7214 21.0822 34.201 21.277 34.5588 21.6251L42.1667 29.0234V5.11111C42.1667 4.77222 42.032 4.44722 41.7924 4.20759C41.5528 3.96796 41.2278 3.83333 40.8889 3.83333ZM3.83333 40.8889V37.2191L14.3009 29.5857L21.9573 34.546C22.3213 34.7819 22.7546 34.8873 23.1863 34.8451C23.618 34.8028 24.0226 34.6154 24.334 34.3134L33.2222 25.6731L42.1079 34.3109L42.1667 34.2521V40.8889C42.1667 41.2278 42.032 41.5528 41.7924 41.7924C41.5528 42.032 41.2278 42.1667 40.8889 42.1667H5.11111C4.77222 42.1667 4.44722 42.032 4.20759 41.7924C3.96796 41.5528 3.83333 41.2278 3.83333 40.8889Z" fill="black"/>
</svg>
