<svg width="265" height="56" viewBox="0 0 265 56" fill="none" xmlns="http://www.w3.org/2000/svg">
<rect y="4" width="48" height="48" rx="4" fill="black"/>
<g clip-path="url(#clip0_410_1328)">
<path d="M34 28C34 22.4771 29.5229 18 24 18C18.4771 18 14 22.4771 14 28C14 32.9912 17.6568 37.1283 22.4375 37.8785V30.8906H19.8984V28H22.4375V25.7969C22.4375 23.2906 23.9305 21.9063 26.2146 21.9063C27.3084 21.9063 28.4531 22.1016 28.4531 22.1016V24.5625H27.1922C25.95 24.5625 25.5625 25.3334 25.5625 26.125V28H28.3359L27.8926 30.8906H25.5625V37.8785C30.3432 37.1283 34 32.9912 34 28Z" fill="white"/>
</g>
<rect x="72" y="4" width="48" height="48" rx="4" stroke="black" stroke-width="2"/>
<path fill-rule="evenodd" clip-rule="evenodd" d="M106 28C106 33.5228 101.523 38 96 38C90.4772 38 86 33.5228 86 28C86 22.4772 90.4772 18 96 18C101.523 18 106 22.4772 106 28ZM101.205 26.538C102.012 26.538 102.667 27.193 102.667 28C102.667 28.5965 102.304 29.1111 101.825 29.345C101.848 29.4854 101.86 29.6257 101.86 29.7778C101.86 32.0234 99.2515 33.8362 96.0234 33.8362C92.7953 33.8362 90.1871 32.0234 90.1871 29.7778C90.1871 29.6257 90.1988 29.4737 90.2222 29.3333C89.7076 29.0994 89.3567 28.5965 89.3567 28C89.3567 27.193 90.0117 26.538 90.8187 26.538C91.2047 26.538 91.5673 26.7017 91.8246 26.9473C92.8304 26.2105 94.2222 25.7544 95.7778 25.7076L96.5146 22.2222C96.538 22.152 96.5731 22.0935 96.6316 22.0585C96.6901 22.0234 96.7602 22.0117 96.8304 22.0234L99.2515 22.538C99.4152 22.1871 99.7661 21.9532 100.175 21.9532C100.749 21.9532 101.216 22.421 101.216 22.9941C101.216 23.5672 100.749 24.0351 100.175 24.0351C99.614 24.0351 99.1579 23.5906 99.1345 23.0409L96.9708 22.5848L96.3041 25.7076C97.8246 25.7661 99.2047 26.2339 100.199 26.9473C100.456 26.69 100.807 26.538 101.205 26.538ZM93.7076 28C93.1345 28 92.6667 28.4678 92.6667 29.0409C92.6667 29.614 93.1345 30.0819 93.7076 30.0819C94.2807 30.0819 94.7485 29.614 94.7485 29.0409C94.7485 28.4678 94.2807 28 93.7076 28ZM96.0117 32.5497C96.4094 32.5497 97.7661 32.5029 98.4795 31.7895C98.5848 31.6842 98.5848 31.5204 98.5029 31.4035C98.3977 31.2982 98.2222 31.2982 98.117 31.4035C97.6608 31.8479 96.7135 32.0117 96.0234 32.0117C95.3333 32.0117 94.3743 31.8479 93.9298 31.4035C93.8246 31.2982 93.6491 31.2982 93.5439 31.4035C93.4386 31.5088 93.4386 31.6842 93.5439 31.7895C94.2456 32.4912 95.614 32.5497 96.0117 32.5497ZM97.2515 29.0409C97.2515 29.614 97.7193 30.0819 98.2924 30.0819C98.8655 30.0819 99.3333 29.614 99.3333 29.0409C99.3333 28.4678 98.8655 28 98.2924 28C97.7193 28 97.2515 28.4678 97.2515 29.0409Z" fill="black"/>
<rect x="144" y="4" width="48" height="48" rx="4" stroke="black" stroke-width="2"/>
<path d="M166.24 26.39C165.67 26.39 165.22 26.89 165.22 27.5C165.22 28.11 165.68 28.61 166.24 28.61C166.81 28.61 167.26 28.11 167.26 27.5C167.27 26.89 166.81 26.39 166.24 26.39ZM169.89 26.39C169.32 26.39 168.87 26.89 168.87 27.5C168.87 28.11 169.33 28.61 169.89 28.61C170.46 28.61 170.91 28.11 170.91 27.5C170.91 26.89 170.46 26.39 169.89 26.39Z" fill="black"/>
<path d="M174.75 18H161.35C160.22 18 159.3 18.92 159.3 20.06V33.58C159.3 34.72 160.22 35.64 161.35 35.64H172.69L172.16 33.79L173.44 34.98L174.65 36.1L176.8 38V20.06C176.8 18.92 175.88 18 174.75 18ZM170.89 31.06C170.89 31.06 170.53 30.63 170.23 30.25C171.54 29.88 172.04 29.06 172.04 29.06C171.63 29.33 171.24 29.52 170.89 29.65C170.39 29.86 169.91 30 169.44 30.08C168.48 30.26 167.6 30.21 166.85 30.07C166.28 29.96 165.79 29.8 165.38 29.64C165.15 29.55 164.9 29.44 164.65 29.3C164.62 29.28 164.59 29.27 164.56 29.25C164.54 29.24 164.53 29.23 164.52 29.22C164.34 29.12 164.24 29.05 164.24 29.05C164.24 29.05 164.72 29.85 165.99 30.23C165.69 30.61 165.32 31.06 165.32 31.06C163.11 30.99 162.27 29.54 162.27 29.54C162.27 26.32 163.71 23.71 163.71 23.71C165.15 22.63 166.52 22.66 166.52 22.66L166.62 22.78C164.82 23.3 163.99 24.09 163.99 24.09C163.99 24.09 164.21 23.97 164.58 23.8C165.65 23.33 166.5 23.2 166.85 23.17C166.91 23.16 166.96 23.15 167.02 23.15C167.63 23.07 168.32 23.05 169.04 23.13C169.99 23.24 171.01 23.52 172.05 24.09C172.05 24.09 171.26 23.34 169.56 22.82L169.7 22.66C169.7 22.66 171.07 22.63 172.51 23.71C172.51 23.71 173.95 26.32 173.95 29.54C173.95 29.54 173.1 30.99 170.89 31.06Z" fill="black"/>
<rect x="216" y="4" width="48" height="48" rx="4" stroke="black" stroke-width="2"/>
<path d="M236.292 36.125C243.837 36.125 247.965 29.8723 247.965 24.4516C247.965 24.2758 247.961 24.0961 247.954 23.9204C248.757 23.3396 249.45 22.6203 250 21.7961C249.252 22.1289 248.458 22.3462 247.645 22.4407C248.501 21.9275 249.142 21.1213 249.449 20.1715C248.644 20.6489 247.763 20.9856 246.845 21.1672C246.226 20.5097 245.407 20.0743 244.516 19.9284C243.625 19.7825 242.711 19.9343 241.915 20.3601C241.119 20.786 240.485 21.4623 240.112 22.2845C239.738 23.1067 239.646 24.0289 239.85 24.9086C238.219 24.8268 236.623 24.4031 235.167 23.6651C233.71 22.9271 232.425 21.8913 231.394 20.6247C230.87 21.5278 230.71 22.5964 230.946 23.6135C231.182 24.6305 231.796 25.5196 232.664 26.1C232.012 26.0794 231.375 25.904 230.805 25.5883V25.6391C230.804 26.5869 231.132 27.5055 231.732 28.239C232.332 28.9725 233.168 29.4755 234.097 29.6625C233.493 29.8277 232.86 29.8517 232.246 29.7329C232.508 30.5479 233.018 31.2608 233.705 31.772C234.392 32.2832 235.221 32.5672 236.077 32.5844C234.624 33.726 232.828 34.3452 230.98 34.3422C230.653 34.3417 230.325 34.3216 230 34.2821C231.877 35.4865 234.061 36.1262 236.292 36.125Z" fill="black"/>
<defs>
<clipPath id="clip0_410_1328">
<rect width="20" height="20" fill="white" transform="translate(14 18)"/>
</clipPath>
</defs>
</svg>
